<svg xmlns="http://www.w3.org/2000/svg"  fill="none" viewBox="0 0 32 32" ><path stroke="#2B2F30" stroke-linecap="round" stroke-linejoin="round" d="M18 23V4.998a1 1 0 00-1-1H5a1 1 0 00-1 1V15.5"></path><path stroke="#2B2F30" stroke-miterlimit="10" d="M10.5 25a4.5 4.5 0 100-9 4.5 4.5 0 000 9z"></path><path stroke="#2B2F30" stroke-linecap="round" stroke-linejoin="round" d="M3 28c.76-.912 1.854-1.67 3.17-2.196C7.487 25.277 8.98 25 10.5 25s3.013.277 4.33.804c1.316.526 2.41 1.284 3.17 2.196M28 27.998v-15a1 1 0 00-1-1h-9M8 8.998h4M22 21.998h2M22 16.998h2"></path></svg>