<svg xmlns="http://www.w3.org/2000/svg" fill="none" viewBox="0 0 32 32"  aria-hidden="true" focusable="false"><path fill="#4285F4" fill-rule="evenodd" d="M26.24 16.242c0-.756-.068-1.483-.194-2.182H16v4.127h5.74a4.907 4.907 0 01-2.128 3.219v2.676h3.447c2.017-1.857 3.181-4.591 3.181-7.84z" clip-rule="evenodd"></path><path fill="#34A853" fill-rule="evenodd" d="M16 26.666c2.88 0 5.294-.955 7.06-2.584l-3.448-2.676c-.955.64-2.177 1.018-3.612 1.018-2.778 0-5.13-1.876-5.969-4.398H6.468v2.764A10.663 10.663 0 0016 26.666z" clip-rule="evenodd"></path><path fill="#FBBC05" fill-rule="evenodd" d="M10.031 18.027A6.413 6.413 0 019.697 16c0-.703.121-1.387.334-2.027V11.21H6.468c-.723 1.44-1.135 3.069-1.135 4.79s.412 3.35 1.135 4.79l3.563-2.763z" clip-rule="evenodd"></path><path fill="#EA4335" fill-rule="evenodd" d="M16 9.576c1.566 0 2.972.538 4.078 1.595l3.059-3.06C21.29 6.391 18.875 5.333 16 5.333c-4.17 0-7.777 2.39-9.532 5.877l3.563 2.763c.84-2.521 3.19-4.397 5.969-4.397z" clip-rule="evenodd"></path></svg>