<svg xmlns="http://www.w3.org/2000/svg"  fill="none" viewBox="0 0 32 32"><path stroke="#2B2F30" stroke-linecap="round" stroke-linejoin="round" d="M15 13.302l-3.25-5.629a2.5 2.5 0 014.33-2.5l5 8.66"></path><path stroke="#2B2F30" stroke-linecap="round" stroke-linejoin="round" d="M11.169 16.669L6.419 8.44a2.5 2.5 0 114.33-2.5L15 13.303"></path><path stroke="#2B2F30" stroke-linecap="round" stroke-linejoin="round" d="M19.25 20.663a5 5 0 011.83-6.83l-1.25-2.165a2.5 2.5 0 114.33-2.5l2.5 4.33a9.998 9.998 0 01-7.355 14.917 9.999 9.999 0 01-9.966-4.917l-4.75-8.227a2.5 2.5 0 014.33-2.5l2.25 3.897M10.137 30A13.944 13.944 0 016 25.5M22 3.875a6.496 6.496 0 015.628 3.25"></path></svg>